# xmcd
#
# Track frame offsets: 
#        150
#        17520
#        33505
#        56610
#        73175
#        90932
#        108000
#        125432
#        144552
#        158427
#
# Disc length: 2323 seconds
#
# Revision: 0
# Processed by: cddbd v1.4PL0 Copyright (c) Steve Scherf et al.
# Submitted via: ExactAudioCopy v0.90b2
#
DISCID=7509110a
DTITLE=Dan Seals - Montana Sky
DYEAR=1900
DGENRE=Country
TTITLE0=Love On Arrival
TTITLE1=Good Times
TTITLE2=You Still Move Me
TTITLE3=Bop
TTITLE4=Meet Me In Montana (Duet With Marie Osmond)
TTITLE5=I Will Be There
TTITLE6=Big Wheels In The Moonlight
TTITLE7=Addicted
TTITLE8=Three Time Loser
TTITLE9=My Baby's Got Good Timing
EXTD=
EXTT0=
EXTT1=
EXTT2=
EXTT3=
EXTT4=
EXTT5=
EXTT6=
EXTT7=
EXTT8=
EXTT9=
PLAYORDER=
